<svg width="71" height="37" viewBox="0 0 71 37" fill="none" xmlns="http://www.w3.org/2000/svg">
<path d="M4.028 14.19C3.21733 14.19 2.50167 14.038 1.881 13.734C1.273 13.4173 0.766333 12.993 0.361 12.461L2.109 10.789C2.337 11.1183 2.60933 11.3717 2.926 11.549C3.25533 11.7137 3.61633 11.796 4.009 11.796C4.40167 11.796 4.74367 11.7137 5.035 11.549C5.339 11.3843 5.567 11.1437 5.719 10.827C5.88367 10.5103 5.966 10.124 5.966 9.668V0.643H8.569V9.516C8.569 10.4533 8.379 11.2767 7.999 11.986C7.63167 12.6827 7.106 13.2273 6.422 13.62C5.75067 14 4.95267 14.19 4.028 14.19ZM15.1562 14.19C14.2315 14.19 13.3955 13.981 12.6482 13.563C11.9135 13.1323 11.3245 12.556 10.8812 11.834C10.4505 11.0993 10.2352 10.2823 10.2352 9.383C10.2352 8.48367 10.4505 7.67933 10.8812 6.97C11.3119 6.248 11.9009 5.678 12.6482 5.26C13.3955 4.82933 14.2252 4.614 15.1372 4.614C16.0745 4.614 16.9105 4.82933 17.6452 5.26C18.3925 5.678 18.9815 6.248 19.4122 6.97C19.8429 7.67933 20.0582 8.48367 20.0582 9.383C20.0582 10.2823 19.8429 11.0993 19.4122 11.834C18.9815 12.556 18.3925 13.1323 17.6452 13.563C16.9105 13.981 16.0809 14.19 15.1562 14.19ZM15.1372 11.872C15.6059 11.872 16.0175 11.7707 16.3722 11.568C16.7395 11.3527 17.0182 11.0613 17.2082 10.694C17.4109 10.314 17.5122 9.88333 17.5122 9.402C17.5122 8.92067 17.4109 8.49633 17.2082 8.129C17.0055 7.76167 16.7269 7.47667 16.3722 7.274C16.0175 7.05867 15.6059 6.951 15.1372 6.951C14.6812 6.951 14.2759 7.05867 13.9212 7.274C13.5665 7.47667 13.2879 7.76167 13.0852 8.129C12.8825 8.49633 12.7812 8.92067 12.7812 9.402C12.7812 9.88333 12.8825 10.314 13.0852 10.694C13.2879 11.0613 13.5665 11.3527 13.9212 11.568C14.2759 11.7707 14.6812 11.872 15.1372 11.872ZM27.8356 14V8.737C27.8356 8.19233 27.6646 7.749 27.3226 7.407C26.9806 7.065 26.5373 6.894 25.9926 6.894C25.6379 6.894 25.3213 6.97 25.0426 7.122C24.7639 7.274 24.5423 7.48933 24.3776 7.768C24.2256 8.04667 24.1496 8.36967 24.1496 8.737L23.1806 8.243C23.1806 7.521 23.3326 6.894 23.6366 6.362C23.9406 5.81733 24.3586 5.393 24.8906 5.089C25.4353 4.785 26.0559 4.633 26.7526 4.633C27.4493 4.633 28.0636 4.785 28.5956 5.089C29.1403 5.393 29.5646 5.811 29.8686 6.343C30.1726 6.875 30.3246 7.48933 30.3246 8.186V14H27.8356ZM21.6606 14V0.262999H24.1496V14H21.6606ZM38.5045 14V8.737C38.5045 8.19233 38.3335 7.749 37.9915 7.407C37.6495 7.065 37.2062 6.894 36.6615 6.894C36.3069 6.894 35.9902 6.97 35.7115 7.122C35.4329 7.274 35.2112 7.48933 35.0465 7.768C34.8945 8.04667 34.8185 8.36967 34.8185 8.737L33.8495 8.243C33.8495 7.521 34.0015 6.894 34.3055 6.362C34.6222 5.81733 35.0529 5.393 35.5975 5.089C36.1549 4.785 36.7819 4.633 37.4785 4.633C38.1499 4.633 38.7515 4.804 39.2835 5.146C39.8155 5.47533 40.2335 5.91233 40.5375 6.457C40.8415 6.989 40.9935 7.56533 40.9935 8.186V14H38.5045ZM32.3295 14V4.823H34.8185V14H32.3295ZM46.1525 14.209C45.6332 14.209 45.1202 14.1393 44.6135 14C44.1195 13.8607 43.6635 13.6707 43.2455 13.43C42.8275 13.1767 42.4665 12.8727 42.1625 12.518L43.6445 11.017C43.9612 11.3717 44.3285 11.6377 44.7465 11.815C45.1645 11.9923 45.6268 12.081 46.1335 12.081C46.5388 12.081 46.8428 12.024 47.0455 11.91C47.2608 11.796 47.3685 11.625 47.3685 11.397C47.3685 11.1437 47.2545 10.9473 47.0265 10.808C46.8112 10.6687 46.5262 10.5547 46.1715 10.466C45.8168 10.3647 45.4432 10.257 45.0505 10.143C44.6705 10.0163 44.3032 9.858 43.9485 9.668C43.5938 9.46533 43.3025 9.193 43.0745 8.851C42.8592 8.49633 42.7515 8.04033 42.7515 7.483C42.7515 6.90033 42.8908 6.39367 43.1695 5.963C43.4608 5.53233 43.8725 5.19667 44.4045 4.956C44.9365 4.71533 45.5635 4.595 46.2855 4.595C47.0455 4.595 47.7295 4.728 48.3375 4.994C48.9582 5.26 49.4712 5.659 49.8765 6.191L48.3755 7.692C48.0968 7.35 47.7802 7.103 47.4255 6.951C47.0835 6.799 46.7098 6.723 46.3045 6.723C45.9372 6.723 45.6522 6.78 45.4495 6.894C45.2595 7.008 45.1645 7.16633 45.1645 7.369C45.1645 7.597 45.2722 7.77433 45.4875 7.901C45.7155 8.02767 46.0068 8.14167 46.3615 8.243C46.7162 8.33167 47.0835 8.43933 47.4635 8.566C47.8562 8.68 48.2235 8.84467 48.5655 9.06C48.9202 9.27533 49.2052 9.56033 49.4205 9.915C49.6485 10.2697 49.7625 10.7257 49.7625 11.283C49.7625 12.1823 49.4395 12.898 48.7935 13.43C48.1475 13.9493 47.2672 14.209 46.1525 14.209ZM55.7539 14.19C54.8292 14.19 53.9932 13.981 53.2459 13.563C52.5112 13.1323 51.9222 12.556 51.4789 11.834C51.0482 11.0993 50.8329 10.2823 50.8329 9.383C50.8329 8.48367 51.0482 7.67933 51.4789 6.97C51.9095 6.248 52.4985 5.678 53.2459 5.26C53.9932 4.82933 54.8229 4.614 55.7349 4.614C56.6722 4.614 57.5082 4.82933 58.2429 5.26C58.9902 5.678 59.5792 6.248 60.0099 6.97C60.4405 7.67933 60.6559 8.48367 60.6559 9.383C60.6559 10.2823 60.4405 11.0993 60.0099 11.834C59.5792 12.556 58.9902 13.1323 58.2429 13.563C57.5082 13.981 56.6785 14.19 55.7539 14.19ZM55.7349 11.872C56.2035 11.872 56.6152 11.7707 56.9699 11.568C57.3372 11.3527 57.6159 11.0613 57.8059 10.694C58.0085 10.314 58.1099 9.88333 58.1099 9.402C58.1099 8.92067 58.0085 8.49633 57.8059 8.129C57.6032 7.76167 57.3245 7.47667 56.9699 7.274C56.6152 7.05867 56.2035 6.951 55.7349 6.951C55.2789 6.951 54.8735 7.05867 54.5189 7.274C54.1642 7.47667 53.8855 7.76167 53.6829 8.129C53.4802 8.49633 53.3789 8.92067 53.3789 9.402C53.3789 9.88333 53.4802 10.314 53.6829 10.694C53.8855 11.0613 54.1642 11.3527 54.5189 11.568C54.8735 11.7707 55.2789 11.872 55.7349 11.872ZM68.4333 14V8.737C68.4333 8.19233 68.2623 7.749 67.9203 7.407C67.5783 7.065 67.1349 6.894 66.5903 6.894C66.2356 6.894 65.9189 6.97 65.6403 7.122C65.3616 7.274 65.1399 7.48933 64.9753 7.768C64.8233 8.04667 64.7473 8.36967 64.7473 8.737L63.7783 8.243C63.7783 7.521 63.9303 6.894 64.2343 6.362C64.5509 5.81733 64.9816 5.393 65.5263 5.089C66.0836 4.785 66.7106 4.633 67.4073 4.633C68.0786 4.633 68.6803 4.804 69.2123 5.146C69.7443 5.47533 70.1623 5.91233 70.4663 6.457C70.7703 6.989 70.9222 7.56533 70.9222 8.186V14H68.4333ZM62.2583 14V4.823H64.7473V14H62.2583ZM4.81294 32.276V30.015H11.3869V32.276H4.81294ZM25.1532 36.19C24.0765 36.19 23.1518 36.0063 22.3792 35.639C21.6192 35.2717 20.9288 34.7207 20.3082 33.986L22.0182 32.276C22.4108 32.7953 22.8668 33.2007 23.3862 33.492C23.9055 33.7707 24.5388 33.91 25.2862 33.91C25.9575 33.91 26.4895 33.777 26.8822 33.511C27.2875 33.245 27.4902 32.8777 27.4902 32.409C27.4902 32.0037 27.3762 31.6743 27.1482 31.421C26.9202 31.1677 26.6162 30.9523 26.2362 30.775C25.8688 30.5977 25.4572 30.4393 25.0012 30.3C24.5578 30.148 24.1082 29.977 23.6522 29.787C23.2088 29.597 22.7972 29.3627 22.4172 29.084C22.0498 28.7927 21.7522 28.4253 21.5242 27.982C21.2962 27.526 21.1822 26.956 21.1822 26.272C21.1822 25.4613 21.3785 24.771 21.7712 24.201C22.1638 23.631 22.7022 23.194 23.3862 22.89C24.0702 22.586 24.8428 22.434 25.7042 22.434C26.6162 22.434 27.4395 22.605 28.1742 22.947C28.9088 23.289 29.5105 23.7323 29.9792 24.277L28.2692 25.987C27.8765 25.5563 27.4712 25.2397 27.0532 25.037C26.6478 24.8343 26.1855 24.733 25.6662 24.733C25.0708 24.733 24.6022 24.847 24.2602 25.075C23.9182 25.303 23.7472 25.6323 23.7472 26.063C23.7472 26.4303 23.8612 26.728 24.0892 26.956C24.3172 27.184 24.6148 27.3803 24.9822 27.545C25.3622 27.7097 25.7738 27.868 26.2172 28.02C26.6732 28.172 27.1228 28.343 27.5662 28.533C28.0222 28.723 28.4338 28.97 28.8012 29.274C29.1812 29.578 29.4852 29.9707 29.7132 30.452C29.9412 30.9207 30.0552 31.5033 30.0552 32.2C30.0552 33.4413 29.6182 34.4167 28.7442 35.126C27.8702 35.8353 26.6732 36.19 25.1532 36.19ZM31.8286 36V26.823H34.3176V36H31.8286ZM37.8136 36V30.585C37.8136 30.053 37.6426 29.6413 37.3006 29.35C36.9712 29.046 36.5596 28.894 36.0656 28.894C35.7362 28.894 35.4386 28.9637 35.1726 29.103C34.9066 29.2297 34.6976 29.4197 34.5456 29.673C34.3936 29.9263 34.3176 30.2303 34.3176 30.585L33.3486 30.11C33.3486 29.4007 33.5006 28.7863 33.8046 28.267C34.1212 27.7477 34.5456 27.3487 35.0776 27.07C35.6096 26.7787 36.2112 26.633 36.8826 26.633C37.5159 26.633 38.0922 26.7787 38.6116 27.07C39.1309 27.3487 39.5426 27.7477 39.8466 28.267C40.1506 28.7737 40.3026 29.388 40.3026 30.11V36H37.8136ZM43.7986 36V30.585C43.7986 30.053 43.6276 29.6413 43.2856 29.35C42.9562 29.046 42.5446 28.894 42.0506 28.894C41.7339 28.894 41.4362 28.9637 41.1576 29.103C40.8916 29.2297 40.6826 29.4197 40.5306 29.673C40.3786 29.9263 40.3026 30.2303 40.3026 30.585L38.8776 30.243C38.9282 29.5083 39.1246 28.875 39.4666 28.343C39.8086 27.7983 40.2582 27.3803 40.8156 27.089C41.3729 26.785 41.9936 26.633 42.6776 26.633C43.3616 26.633 43.9759 26.7787 44.5206 27.07C45.0652 27.3487 45.4959 27.754 45.8126 28.286C46.1292 28.818 46.2876 29.4513 46.2876 30.186V36H43.7986ZM48.3051 36V26.823H50.8131V36H48.3051ZM49.5591 25.341C49.1538 25.341 48.8181 25.208 48.5521 24.942C48.2861 24.6633 48.1531 24.3213 48.1531 23.916C48.1531 23.5233 48.2861 23.1877 48.5521 22.909C48.8181 22.6303 49.1538 22.491 49.5591 22.491C49.9771 22.491 50.3128 22.6303 50.5661 22.909C50.8321 23.1877 50.9651 23.5233 50.9651 23.916C50.9651 24.3213 50.8321 24.6633 50.5661 24.942C50.3128 25.208 49.9771 25.341 49.5591 25.341ZM54.367 36V23.004H56.856V36H54.367ZM52.22 29.008V26.823H59.003V29.008H52.22ZM66.5778 36V30.737C66.5778 30.1923 66.4068 29.749 66.0648 29.407C65.7228 29.065 65.2794 28.894 64.7348 28.894C64.3801 28.894 64.0634 28.97 63.7848 29.122C63.5061 29.274 63.2844 29.4893 63.1198 29.768C62.9678 30.0467 62.8918 30.3697 62.8918 30.737L61.9228 30.243C61.9228 29.521 62.0748 28.894 62.3788 28.362C62.6828 27.8173 63.1008 27.393 63.6328 27.089C64.1774 26.785 64.7981 26.633 65.4948 26.633C66.1914 26.633 66.8058 26.785 67.3378 27.089C67.8824 27.393 68.3068 27.811 68.6108 28.343C68.9148 28.875 69.0668 29.4893 69.0668 30.186V36H66.5778ZM60.4028 36V22.263H62.8918V36H60.4028Z" fill="#181B2E"/>
</svg>
